<svg width="443" height="200" viewBox="0 0 443 200" fill="none" xmlns="http://www.w3.org/2000/svg">
<path d="M55.012 81.798C51.744 81.798 48.59 81.399 45.55 80.601C42.548 79.765 40.097 78.701 38.197 77.409L41.902 69.087C43.688 70.227 45.74 71.177 48.058 71.937C50.414 72.659 52.751 73.02 55.069 73.02C56.627 73.02 57.881 72.887 58.831 72.621C59.781 72.317 60.465 71.937 60.883 71.481C61.339 70.987 61.567 70.417 61.567 69.771C61.567 68.859 61.149 68.137 60.313 67.605C59.477 67.073 58.394 66.636 57.064 66.294C55.734 65.952 54.252 65.61 52.618 65.268C51.022 64.926 49.407 64.489 47.773 63.957C46.177 63.425 44.714 62.741 43.384 61.905C42.054 61.031 40.971 59.91 40.135 58.542C39.299 57.136 38.881 55.369 38.881 53.241C38.881 50.847 39.527 48.681 40.819 46.743C42.149 44.805 44.125 43.247 46.747 42.069C49.369 40.891 52.637 40.302 56.551 40.302C59.173 40.302 61.738 40.606 64.246 41.214C66.792 41.784 69.053 42.639 71.029 43.779L67.552 52.158C65.652 51.132 63.771 50.372 61.909 49.878C60.047 49.346 58.242 49.08 56.494 49.08C54.936 49.08 53.682 49.251 52.732 49.593C51.782 49.897 51.098 50.315 50.68 50.847C50.262 51.379 50.053 51.987 50.053 52.671C50.053 53.545 50.452 54.248 51.25 54.78C52.086 55.274 53.169 55.692 54.499 56.034C55.867 56.338 57.349 56.661 58.945 57.003C60.579 57.345 62.194 57.782 63.79 58.314C65.424 58.808 66.906 59.492 68.236 60.366C69.566 61.202 70.63 62.323 71.428 63.729C72.264 65.097 72.682 66.826 72.682 68.916C72.682 71.234 72.017 73.381 70.687 75.357C69.395 77.295 67.438 78.853 64.816 80.031C62.232 81.209 58.964 81.798 55.012 81.798ZM88.6683 75.3L88.9533 62.361L101.55 50.106H114.375L100.41 64.527L94.8813 68.973L88.6683 75.3ZM79.6623 81V38.706H90.4923V81H79.6623ZM102.348 81L92.8863 69.144L99.6123 60.822L115.458 81H102.348ZM121.018 81V50.106H131.848V81H121.018ZM126.433 46.686C124.457 46.686 122.861 46.135 121.645 45.033C120.429 43.931 119.821 42.563 119.821 40.929C119.821 39.295 120.429 37.927 121.645 36.825C122.861 35.723 124.457 35.172 126.433 35.172C128.409 35.172 130.005 35.704 131.221 36.768C132.437 37.794 133.045 39.124 133.045 40.758C133.045 42.468 132.437 43.893 131.221 45.033C130.043 46.135 128.447 46.686 126.433 46.686ZM141.167 81V38.706H151.997V81H141.167ZM161.315 81V38.706H172.145V81H161.315ZM211.332 58.599H229.743V67.32H211.332V58.599ZM212.13 81H200.844V41.1H232.137V49.821H212.13V81ZM254.018 81.513C250.636 81.513 247.634 80.829 245.012 79.461C242.39 78.093 240.319 76.212 238.799 73.818C237.317 71.386 236.576 68.612 236.576 65.496C236.576 62.38 237.317 59.625 238.799 57.231C240.319 54.837 242.39 52.975 245.012 51.645C247.634 50.277 250.636 49.593 254.018 49.593C257.4 49.593 260.402 50.277 263.024 51.645C265.684 52.975 267.755 54.837 269.237 57.231C270.719 59.625 271.46 62.38 271.46 65.496C271.46 68.612 270.719 71.386 269.237 73.818C267.755 76.212 265.684 78.093 263.024 79.461C260.402 80.829 257.4 81.513 254.018 81.513ZM254.018 72.906C255.272 72.906 256.374 72.621 257.324 72.051C258.312 71.481 259.091 70.645 259.661 69.543C260.231 68.403 260.516 67.054 260.516 65.496C260.516 63.938 260.231 62.627 259.661 61.563C259.091 60.461 258.312 59.625 257.324 59.055C256.374 58.485 255.272 58.2 254.018 58.2C252.802 58.2 251.7 58.485 250.712 59.055C249.762 59.625 248.983 60.461 248.375 61.563C247.805 62.627 247.52 63.938 247.52 65.496C247.52 67.054 247.805 68.403 248.375 69.543C248.983 70.645 249.762 71.481 250.712 72.051C251.7 72.621 252.802 72.906 254.018 72.906ZM278.757 81V50.106H289.074V59.112L287.535 56.547C288.447 54.229 289.929 52.5 291.981 51.36C294.033 50.182 296.522 49.593 299.448 49.593V59.34C298.954 59.264 298.517 59.226 298.137 59.226C297.795 59.188 297.415 59.169 296.997 59.169C294.793 59.169 293.007 59.777 291.639 60.993C290.271 62.171 289.587 64.109 289.587 66.807V81H278.757ZM321.024 92.571C318.06 92.571 315.229 92.229 312.531 91.545C309.871 90.861 307.591 89.854 305.691 88.524L309.624 80.943C310.916 81.969 312.512 82.767 314.412 83.337C316.35 83.945 318.231 84.249 320.055 84.249C322.981 84.249 325.09 83.603 326.382 82.311C327.674 81.057 328.32 79.214 328.32 76.782V73.134L328.89 64.47L328.833 55.749V50.106H339.15V75.357C339.15 81.209 337.573 85.541 334.419 88.353C331.265 91.165 326.8 92.571 321.024 92.571ZM319.143 79.404C316.407 79.404 313.88 78.796 311.562 77.58C309.282 76.326 307.439 74.597 306.033 72.393C304.665 70.151 303.981 67.51 303.981 64.47C303.981 61.43 304.665 58.808 306.033 56.604C307.439 54.362 309.282 52.633 311.562 51.417C313.88 50.201 316.407 49.593 319.143 49.593C321.765 49.593 324.007 50.125 325.869 51.189C327.731 52.215 329.137 53.83 330.087 56.034C331.075 58.238 331.569 61.05 331.569 64.47C331.569 67.89 331.075 70.702 330.087 72.906C329.137 75.11 327.731 76.744 325.869 77.808C324.007 78.872 321.765 79.404 319.143 79.404ZM321.708 70.797C323 70.797 324.14 70.531 325.128 69.999C326.154 69.467 326.952 68.726 327.522 67.776C328.13 66.826 328.434 65.724 328.434 64.47C328.434 63.216 328.13 62.114 327.522 61.164C326.952 60.214 326.154 59.492 325.128 58.998C324.14 58.466 323 58.2 321.708 58.2C320.416 58.2 319.257 58.466 318.231 58.998C317.205 59.492 316.388 60.214 315.78 61.164C315.21 62.114 314.925 63.216 314.925 64.47C314.925 65.724 315.21 66.826 315.78 67.776C316.388 68.726 317.205 69.467 318.231 69.999C319.257 70.531 320.416 70.797 321.708 70.797ZM364.576 81.513C360.928 81.513 357.736 80.829 355 79.461C352.302 78.055 350.193 76.155 348.673 73.761C347.191 71.329 346.45 68.574 346.45 65.496C346.45 62.418 347.172 59.682 348.616 57.288C350.098 54.856 352.131 52.975 354.715 51.645C357.299 50.277 360.206 49.593 363.436 49.593C366.476 49.593 369.25 50.22 371.758 51.474C374.266 52.69 376.261 54.495 377.743 56.889C379.225 59.283 379.966 62.19 379.966 65.61C379.966 65.99 379.947 66.427 379.909 66.921C379.871 67.415 379.833 67.871 379.795 68.289H355.342V62.589H374.038L369.934 64.185C369.972 62.779 369.706 61.563 369.136 60.537C368.604 59.511 367.844 58.713 366.856 58.143C365.906 57.573 364.785 57.288 363.493 57.288C362.201 57.288 361.061 57.573 360.073 58.143C359.123 58.713 358.382 59.53 357.85 60.594C357.318 61.62 357.052 62.836 357.052 64.242V65.895C357.052 67.415 357.356 68.726 357.964 69.828C358.61 70.93 359.522 71.785 360.7 72.393C361.878 72.963 363.284 73.248 364.918 73.248C366.438 73.248 367.73 73.039 368.794 72.621C369.896 72.165 370.979 71.481 372.043 70.569L377.743 76.497C376.261 78.131 374.437 79.385 372.271 80.259C370.105 81.095 367.54 81.513 364.576 81.513Z" fill="#FCB100"/>
<path d="M44.776 129L37.512 106.6H44.04L50.152 125.992H46.856L53.288 106.6H59.112L65.192 125.992H62.024L68.328 106.6H74.376L67.112 129H60.328L55.144 112.52H56.968L51.56 129H44.776ZM78.0757 129V111.656H84.1557V129H78.0757ZM81.1157 109.736C80.0064 109.736 79.1104 109.427 78.4277 108.808C77.7451 108.189 77.4037 107.421 77.4037 106.504C77.4037 105.587 77.7451 104.819 78.4277 104.2C79.1104 103.581 80.0064 103.272 81.1157 103.272C82.2251 103.272 83.1211 103.571 83.8037 104.168C84.4864 104.744 84.8277 105.491 84.8277 106.408C84.8277 107.368 84.4864 108.168 83.8037 108.808C83.1424 109.427 82.2464 109.736 81.1157 109.736ZM100.683 111.368C102.027 111.368 103.243 111.645 104.331 112.2C105.419 112.733 106.272 113.565 106.891 114.696C107.531 115.827 107.851 117.288 107.851 119.08V129H101.771V120.072C101.771 118.835 101.515 117.939 101.003 117.384C100.512 116.808 99.819 116.52 98.923 116.52C98.283 116.52 97.6963 116.669 97.163 116.968C96.6297 117.245 96.2137 117.683 95.915 118.28C95.6163 118.877 95.467 119.656 95.467 120.616V129H89.387V111.656H95.179V116.584L94.059 115.144C94.7203 113.885 95.627 112.947 96.779 112.328C97.931 111.688 99.2323 111.368 100.683 111.368ZM120.692 129.288C118.474 129.288 116.746 128.744 115.508 127.656C114.271 126.547 113.652 124.883 113.652 122.664V107.784H119.732V122.6C119.732 123.219 119.903 123.709 120.244 124.072C120.586 124.413 121.023 124.584 121.556 124.584C122.282 124.584 122.9 124.403 123.412 124.04L124.916 128.296C124.404 128.637 123.775 128.883 123.028 129.032C122.282 129.203 121.503 129.288 120.692 129.288ZM111.124 116.84V112.296H123.7V116.84H111.124ZM137.129 129.288C135.081 129.288 133.289 128.904 131.753 128.136C130.238 127.347 129.054 126.28 128.201 124.936C127.369 123.571 126.953 122.024 126.953 120.296C126.953 118.568 127.358 117.032 128.169 115.688C129.001 114.323 130.142 113.267 131.593 112.52C133.043 111.752 134.675 111.368 136.489 111.368C138.195 111.368 139.753 111.72 141.161 112.424C142.569 113.107 143.689 114.12 144.521 115.464C145.353 116.808 145.769 118.44 145.769 120.36C145.769 120.573 145.758 120.819 145.737 121.096C145.715 121.373 145.694 121.629 145.673 121.864H131.945V118.664H142.441L140.137 119.56C140.158 118.771 140.009 118.088 139.689 117.512C139.39 116.936 138.963 116.488 138.409 116.168C137.875 115.848 137.246 115.688 136.521 115.688C135.795 115.688 135.155 115.848 134.601 116.168C134.067 116.488 133.651 116.947 133.353 117.544C133.054 118.12 132.905 118.803 132.905 119.592V120.52C132.905 121.373 133.075 122.109 133.417 122.728C133.779 123.347 134.291 123.827 134.953 124.168C135.614 124.488 136.403 124.648 137.321 124.648C138.174 124.648 138.899 124.531 139.497 124.296C140.115 124.04 140.723 123.656 141.321 123.144L144.521 126.472C143.689 127.389 142.665 128.093 141.449 128.584C140.233 129.053 138.793 129.288 137.129 129.288ZM149.852 129V111.656H155.644V116.712L154.78 115.272C155.292 113.971 156.124 113 157.276 112.36C158.428 111.699 159.825 111.368 161.468 111.368V116.84C161.191 116.797 160.945 116.776 160.732 116.776C160.54 116.755 160.327 116.744 160.092 116.744C158.855 116.744 157.852 117.085 157.084 117.768C156.316 118.429 155.932 119.517 155.932 121.032V129H149.852ZM187.368 129.448C185.597 129.448 183.955 129.171 182.44 128.616C180.947 128.04 179.645 127.229 178.536 126.184C177.448 125.139 176.595 123.912 175.976 122.504C175.357 121.075 175.048 119.507 175.048 117.8C175.048 116.093 175.357 114.536 175.976 113.128C176.595 111.699 177.448 110.461 178.536 109.416C179.645 108.371 180.947 107.571 182.44 107.016C183.955 106.44 185.597 106.152 187.368 106.152C189.437 106.152 191.283 106.515 192.904 107.24C194.547 107.965 195.912 109.011 197 110.376L192.968 114.024C192.243 113.171 191.443 112.52 190.568 112.072C189.715 111.624 188.755 111.4 187.688 111.4C186.771 111.4 185.928 111.549 185.16 111.848C184.392 112.147 183.731 112.584 183.176 113.16C182.643 113.715 182.216 114.387 181.896 115.176C181.597 115.965 181.448 116.84 181.448 117.8C181.448 118.76 181.597 119.635 181.896 120.424C182.216 121.213 182.643 121.896 183.176 122.472C183.731 123.027 184.392 123.453 185.16 123.752C185.928 124.051 186.771 124.2 187.688 124.2C188.755 124.2 189.715 123.976 190.568 123.528C191.443 123.08 192.243 122.429 192.968 121.576L197 125.224C195.912 126.568 194.547 127.613 192.904 128.36C191.283 129.085 189.437 129.448 187.368 129.448ZM208.959 129.288C207.06 129.288 205.375 128.904 203.903 128.136C202.431 127.368 201.268 126.312 200.415 124.968C199.583 123.603 199.167 122.045 199.167 120.296C199.167 118.547 199.583 117 200.415 115.656C201.268 114.312 202.431 113.267 203.903 112.52C205.375 111.752 207.06 111.368 208.959 111.368C210.857 111.368 212.543 111.752 214.015 112.52C215.508 113.267 216.671 114.312 217.503 115.656C218.335 117 218.751 118.547 218.751 120.296C218.751 122.045 218.335 123.603 217.503 124.968C216.671 126.312 215.508 127.368 214.015 128.136C212.543 128.904 210.857 129.288 208.959 129.288ZM208.959 124.456C209.663 124.456 210.281 124.296 210.815 123.976C211.369 123.656 211.807 123.187 212.127 122.568C212.447 121.928 212.607 121.171 212.607 120.296C212.607 119.421 212.447 118.685 212.127 118.088C211.807 117.469 211.369 117 210.815 116.68C210.281 116.36 209.663 116.2 208.959 116.2C208.276 116.2 207.657 116.36 207.103 116.68C206.569 117 206.132 117.469 205.791 118.088C205.471 118.685 205.311 119.421 205.311 120.296C205.311 121.171 205.471 121.928 205.791 122.568C206.132 123.187 206.569 123.656 207.103 123.976C207.657 124.296 208.276 124.456 208.959 124.456ZM230.399 129.288C228.82 129.288 227.38 128.925 226.079 128.2C224.799 127.453 223.775 126.419 223.007 125.096C222.239 123.752 221.855 122.152 221.855 120.296C221.855 118.461 222.239 116.883 223.007 115.56C223.775 114.216 224.799 113.181 226.079 112.456C227.38 111.731 228.82 111.368 230.399 111.368C231.892 111.368 233.151 111.688 234.175 112.328C235.22 112.968 236.01 113.949 236.543 115.272C237.076 116.595 237.343 118.269 237.343 120.296C237.343 122.365 237.087 124.061 236.575 125.384C236.063 126.707 235.295 127.688 234.271 128.328C233.247 128.968 231.956 129.288 230.399 129.288ZM231.679 124.456C232.362 124.456 232.97 124.296 233.503 123.976C234.058 123.656 234.495 123.187 234.815 122.568C235.135 121.928 235.295 121.171 235.295 120.296C235.295 119.421 235.135 118.685 234.815 118.088C234.495 117.469 234.058 117 233.503 116.68C232.97 116.36 232.362 116.2 231.679 116.2C230.975 116.2 230.346 116.36 229.791 116.68C229.258 117 228.831 117.469 228.511 118.088C228.191 118.685 228.031 119.421 228.031 120.296C228.031 121.171 228.191 121.928 228.511 122.568C228.831 123.187 229.258 123.656 229.791 123.976C230.346 124.296 230.975 124.456 231.679 124.456ZM235.487 129V126.024L235.519 120.296L235.199 114.568V105.256H241.279V129H235.487ZM255.559 129.288C253.511 129.288 251.719 128.904 250.183 128.136C248.668 127.347 247.484 126.28 246.631 124.936C245.799 123.571 245.383 122.024 245.383 120.296C245.383 118.568 245.788 117.032 246.599 115.688C247.431 114.323 248.572 113.267 250.023 112.52C251.473 111.752 253.105 111.368 254.919 111.368C256.625 111.368 258.183 111.72 259.591 112.424C260.999 113.107 262.119 114.12 262.951 115.464C263.783 116.808 264.199 118.44 264.199 120.36C264.199 120.573 264.188 120.819 264.167 121.096C264.145 121.373 264.124 121.629 264.103 121.864H250.375V118.664H260.871L258.567 119.56C258.588 118.771 258.439 118.088 258.119 117.512C257.82 116.936 257.393 116.488 256.839 116.168C256.305 115.848 255.676 115.688 254.951 115.688C254.225 115.688 253.585 115.848 253.031 116.168C252.497 116.488 252.081 116.947 251.783 117.544C251.484 118.12 251.335 118.803 251.335 119.592V120.52C251.335 121.373 251.505 122.109 251.847 122.728C252.209 123.347 252.721 123.827 253.383 124.168C254.044 124.488 254.833 124.648 255.751 124.648C256.604 124.648 257.329 124.531 257.927 124.296C258.545 124.04 259.153 123.656 259.751 123.144L262.951 126.472C262.119 127.389 261.095 128.093 259.879 128.584C258.663 129.053 257.223 129.288 255.559 129.288ZM290.331 129.448C288.56 129.448 286.917 129.171 285.403 128.616C283.909 128.04 282.608 127.229 281.499 126.184C280.411 125.139 279.557 123.912 278.939 122.504C278.32 121.075 278.011 119.507 278.011 117.8C278.011 116.093 278.32 114.536 278.939 113.128C279.557 111.699 280.411 110.461 281.499 109.416C282.608 108.371 283.909 107.571 285.403 107.016C286.917 106.44 288.56 106.152 290.331 106.152C292.4 106.152 294.245 106.515 295.867 107.24C297.509 107.965 298.875 109.011 299.963 110.376L295.931 114.024C295.205 113.171 294.405 112.52 293.531 112.072C292.677 111.624 291.717 111.4 290.651 111.4C289.733 111.4 288.891 111.549 288.123 111.848C287.355 112.147 286.693 112.584 286.139 113.16C285.605 113.715 285.179 114.387 284.859 115.176C284.56 115.965 284.411 116.84 284.411 117.8C284.411 118.76 284.56 119.635 284.859 120.424C285.179 121.213 285.605 121.896 286.139 122.472C286.693 123.027 287.355 123.453 288.123 123.752C288.891 124.051 289.733 124.2 290.651 124.2C291.717 124.2 292.677 123.976 293.531 123.528C294.405 123.08 295.205 122.429 295.931 121.576L299.963 125.224C298.875 126.568 297.509 127.613 295.867 128.36C294.245 129.085 292.4 129.448 290.331 129.448ZM314.309 129V125.768L313.893 124.968V119.016C313.893 118.056 313.594 117.32 312.997 116.808C312.421 116.275 311.493 116.008 310.213 116.008C309.381 116.008 308.538 116.147 307.685 116.424C306.832 116.68 306.106 117.043 305.509 117.512L303.461 113.384C304.442 112.744 305.616 112.253 306.981 111.912C308.368 111.549 309.744 111.368 311.109 111.368C313.925 111.368 316.101 112.019 317.637 113.32C319.194 114.6 319.973 116.616 319.973 119.368V129H314.309ZM309.189 129.288C307.802 129.288 306.629 129.053 305.669 128.584C304.709 128.115 303.973 127.475 303.461 126.664C302.97 125.853 302.725 124.947 302.725 123.944C302.725 122.877 302.992 121.96 303.525 121.192C304.08 120.403 304.922 119.805 306.053 119.4C307.184 118.973 308.645 118.76 310.437 118.76H314.533V121.928H311.269C310.288 121.928 309.594 122.088 309.189 122.408C308.805 122.728 308.613 123.155 308.613 123.688C308.613 124.221 308.816 124.648 309.221 124.968C309.626 125.288 310.181 125.448 310.885 125.448C311.546 125.448 312.144 125.288 312.677 124.968C313.232 124.627 313.637 124.115 313.893 123.432L314.725 125.672C314.405 126.867 313.776 127.773 312.837 128.392C311.92 128.989 310.704 129.288 309.189 129.288ZM347.683 111.368C349.027 111.368 350.221 111.645 351.267 112.2C352.333 112.733 353.165 113.565 353.763 114.696C354.381 115.827 354.691 117.288 354.691 119.08V129H348.611V120.072C348.611 118.835 348.376 117.939 347.907 117.384C347.437 116.808 346.797 116.52 345.987 116.52C345.411 116.52 344.888 116.659 344.419 116.936C343.949 117.213 343.587 117.64 343.331 118.216C343.075 118.771 342.947 119.496 342.947 120.392V129H336.867V120.072C336.867 118.835 336.632 117.939 336.163 117.384C335.715 116.808 335.075 116.52 334.243 116.52C333.645 116.52 333.112 116.659 332.643 116.936C332.195 117.213 331.832 117.64 331.555 118.216C331.299 118.771 331.171 119.496 331.171 120.392V129H325.091V111.656H330.883V116.488L329.731 115.112C330.371 113.875 331.245 112.947 332.355 112.328C333.464 111.688 334.701 111.368 336.067 111.368C337.624 111.368 338.989 111.773 340.163 112.584C341.357 113.373 342.157 114.611 342.563 116.296L340.579 115.88C341.197 114.472 342.125 113.373 343.363 112.584C344.621 111.773 346.061 111.368 347.683 111.368ZM370.72 129.288C369.248 129.288 367.99 128.968 366.944 128.328C365.899 127.667 365.099 126.685 364.544 125.384C364.011 124.061 363.744 122.376 363.744 120.328C363.744 118.259 364 116.573 364.512 115.272C365.024 113.949 365.792 112.968 366.816 112.328C367.862 111.688 369.163 111.368 370.72 111.368C372.299 111.368 373.728 111.741 375.008 112.488C376.31 113.213 377.334 114.248 378.08 115.592C378.848 116.915 379.232 118.493 379.232 120.328C379.232 122.163 378.848 123.752 378.08 125.096C377.334 126.44 376.31 127.475 375.008 128.2C373.728 128.925 372.299 129.288 370.72 129.288ZM359.808 135.208V111.656H365.6V114.6L365.568 120.328L365.888 126.088V135.208H359.808ZM369.44 124.456C370.123 124.456 370.731 124.296 371.264 123.976C371.819 123.656 372.256 123.187 372.576 122.568C372.918 121.949 373.088 121.203 373.088 120.328C373.088 119.453 372.918 118.707 372.576 118.088C372.256 117.469 371.819 117 371.264 116.68C370.731 116.36 370.123 116.2 369.44 116.2C368.758 116.2 368.139 116.36 367.584 116.68C367.051 117 366.614 117.469 366.272 118.088C365.952 118.707 365.792 119.453 365.792 120.328C365.792 121.203 365.952 121.949 366.272 122.568C366.614 123.187 367.051 123.656 367.584 123.976C368.139 124.296 368.758 124.456 369.44 124.456Z" fill="#585553"/>
<rect x="15.5" y="9.5" width="389" height="148" stroke="#585553" stroke-width="3"/>
<rect x="389.5" y="149.5" width="25" height="17" fill="#CD8210" stroke="#FCB100" stroke-width="3"/>
<rect x="389.5" y="1.5" width="25" height="17" fill="#CD8210" stroke="#FCB100" stroke-width="3"/>
<rect x="1.5" y="1.5" width="25" height="17" fill="#CD8210" stroke="#FCB100" stroke-width="3"/>
<rect x="1.5" y="149.5" width="25" height="17" fill="#CD8210" stroke="#FCB100" stroke-width="3"/>
<path d="M438.568 175.202L405.416 162.417L418.214 196.363L424.208 181.209L438.568 175.202Z" fill="#FCB100" stroke="white" stroke-width="2" stroke-linecap="round" stroke-linejoin="round"/>
</svg>
